<svg xmlns="http://www.w3.org/2000/svg" width="1440" viewBox="0 0 1440 487.5" height="487.5" version="1.0"><g fill="#BBEFFF"><g><g><path d="M 85.089844 -87.785156 C 101.90625 -80.984375 124.878906 -93.949219 118.460938 -118.460938 C 90.867188 -134.375 64.683594 -134.375 43.25 -123.980469 C 27.207031 -116.023438 15.402344 -104.855469 9.625 -87.785156 C 4.492188 -72.640625 5.003906 -57.371094 9.242188 -42.226562 C 15.53125 -20.40625 29.519531 -6.03125 51.851562 -0.257812 C 66.738281 3.464844 89.199219 4.363281 102.929688 -2.054688 C 135.660156 -17.453125 123.851562 -48.515625 105.753906 -51.980469 C 102.675781 -50.054688 91.636719 -42.738281 82.910156 -41.582031 C 69.820312 -39.65625 57.242188 -44.535156 55.1875 -59.679688 C 53.777344 -69.691406 55.699219 -79.445312 64.8125 -85.089844 C 71.742188 -89.457031 77.261719 -89.710938 85.089844 -87.785156 Z M 85.089844 -87.785156" transform="translate(96.505 276.427)"/></g></g></g><g fill="#BBEFFF"><g><g><path d="M 70.972656 -130.910156 C 35.679688 -130.78125 18.609375 -111.53125 10.523438 -93.433594 C 4.492188 -80.214844 3.464844 -61.21875 7.316406 -44.664062 C 11.292969 -27.082031 20.664062 -13.347656 36.960938 -5.003906 C 54.03125 3.851562 72.128906 5.261719 90.609375 0.769531 C 113.457031 -4.621094 128.472656 -18.738281 135.402344 -41.070312 C 140.535156 -58.011719 139.125 -74.695312 133.09375 -91.125 C 129.242188 -101.261719 114.738281 -131.167969 70.972656 -130.910156 Z M 71.617188 -84.964844 C 80.726562 -84.964844 88.941406 -76.621094 88.042969 -62.117188 C 87.273438 -47.617188 78.929688 -42.351562 72.128906 -41.96875 C 65.457031 -41.453125 55.574219 -46.71875 54.675781 -61.605469 C 53.648438 -76.878906 62.117188 -84.964844 71.617188 -84.964844 Z M 71.617188 -84.964844" transform="translate(223.95 276.427)"/></g></g></g><g fill="#BBEFFF"><g><g><path d="M 82.011719 -61.734375 C 81.882812 -61.734375 81.625 -61.734375 81.371094 -61.734375 C 81.113281 -62.503906 79.058594 -72 78.804688 -72.769531 C 75.980469 -84.707031 72.640625 -99.464844 70.203125 -108.320312 C 62.886719 -135.015625 30.417969 -132.707031 20.664062 -123.464844 C 18.226562 -109.347656 15.53125 -95.230469 13.21875 -80.984375 C 10.78125 -65.839844 6.929688 -49.925781 4.878906 -34.78125 C -0.386719 1.796875 24.769531 7.570312 45.691406 -3.722656 C 46.972656 -23.742188 48 -39.144531 49.414062 -58.78125 C 50.953125 -54.417969 56.597656 -29.003906 59.679688 -16.683594 C 64.941406 4.363281 91.894531 0.511719 100.363281 -4.75 C 104.085938 -19.636719 107.550781 -34.652344 111.015625 -49.539062 C 111.660156 -52.234375 112.171875 -54.800781 112.683594 -57.496094 C 112.941406 -57.496094 113.328125 -57.496094 113.582031 -57.371094 C 114.355469 -37.734375 113.457031 -32.34375 115.125 -17.070312 C 117.433594 3.335938 144.769531 8.726562 158.761719 -9.367188 C 157.09375 -23.871094 155.550781 -36.449219 153.882812 -50.953125 C 152.085938 -66.097656 149.136719 -91.253906 147.851562 -101.007812 C 144.515625 -126.289062 117.820312 -136.042969 97.15625 -122.695312 C 96.386719 -120.128906 95.359375 -117.691406 94.71875 -115.253906 C 90.738281 -98.183594 86.761719 -81.242188 82.78125 -64.171875 C 82.652344 -63.402344 82.269531 -62.632812 82.011719 -61.734375 Z M 82.011719 -61.734375" transform="translate(367.694 276.427)"/></g></g></g><g fill="#BBEFFF"><g><g><path d="M 52.75 -103.1875 C 48 -133.992188 19.25 -133.992188 7.316406 -123.464844 C 3.207031 -107.808594 4.621094 -36.960938 6.800781 -25.539062 C 12.449219 3.335938 40.554688 7.570312 51.335938 -4.105469 C 54.289062 -25.667969 55.058594 -87.785156 52.75 -103.1875 Z M 52.75 -103.1875" transform="translate(531.075 276.427)"/></g></g></g><g fill="#BBEFFF"><g><g><path d="M 83.679688 -72.128906 C 83.550781 -72 83.292969 -72 83.167969 -71.871094 C 82.652344 -72.769531 82.011719 -73.667969 81.496094 -74.695312 C 72.257812 -90.996094 67.894531 -99.210938 59.039062 -114.226562 C 46.84375 -134.890625 20.277344 -131.421875 8.085938 -121.027344 C 6.546875 -105.882812 6.929688 -49.667969 7.957031 -17.96875 C 8.46875 -2.566406 33.496094 11.550781 54.546875 -5.648438 C 54.929688 -24 53.777344 -32.597656 53.390625 -48 C 53.648438 -48 54.03125 -48.128906 54.289062 -48.128906 C 54.800781 -47.359375 55.445312 -46.71875 55.828125 -45.945312 C 58.78125 -41.328125 67.636719 -24.128906 74.824219 -14.246094 C 90.609375 7.1875 118.332031 4.75 129.371094 -6.289062 C 131.296875 -32.214844 130.140625 -91.253906 130.140625 -106.910156 C 130.140625 -128.601562 99.335938 -139.125 83.679688 -120.128906 C 83.679688 -102.417969 83.679688 -89.457031 83.679688 -72.128906 Z M 83.679688 -72.128906" transform="translate(592.424 276.427)"/></g></g><g><g><path d="M 83.550781 -86.761719 C 100.234375 -79.957031 122.953125 -92.664062 116.664062 -117.050781 C 89.328125 -132.835938 63.53125 -132.835938 42.226562 -122.441406 C 26.308594 -114.738281 14.503906 -103.574219 8.855469 -86.761719 C 3.851562 -71.742188 3.464844 -54.03125 8.597656 -39.402344 C 14.632812 -21.820312 29.390625 1.796875 71.230469 1.796875 C 119.488281 1.796875 130.140625 -31.957031 129.113281 -48.515625 C 127.828125 -70.84375 93.304688 -72.128906 87.273438 -63.914062 C 87.015625 -54.03125 86.761719 -40.941406 72.769531 -40.941406 C 63.660156 -40.8125 55.316406 -47.230469 54.03125 -58.910156 C 52.621094 -68.664062 54.546875 -78.417969 63.53125 -83.9375 C 70.332031 -88.300781 75.851562 -88.683594 83.550781 -86.761719 Z M 83.550781 -86.761719" transform="translate(730.906 276.427)"/></g></g></g><g fill="#BBEFFF"><g><g><path d="M 25.925781 -81.113281 C 27.59375 -82.78125 28.75 -83.9375 29.777344 -85.089844 C 32.855469 -87.660156 36.578125 -89.328125 40.941406 -88.683594 C 44.921875 -88.300781 50.183594 -81.242188 44.148438 -73.925781 C 33.882812 -61.863281 18.226562 -48.515625 9.753906 -39.65625 C -4.105469 -25.027344 4.75 -7.445312 13.347656 1.027344 C 34.140625 1.667969 62.503906 1.027344 77.007812 -0.128906 C 97.027344 -1.667969 105.625 -29.003906 90.226562 -41.710938 C 82.78125 -41.199219 75.464844 -41.070312 68.148438 -40.683594 C 67.125 -40.683594 66.097656 -40.683594 65.457031 -40.683594 C 64.683594 -40.683594 63.660156 -41.453125 65.070312 -42.480469 C 66.226562 -43.378906 74.4375 -50.4375 77.90625 -54.160156 C 88.171875 -65.328125 95.101562 -77.777344 94.203125 -93.691406 C 93.304688 -108.195312 86.632812 -119.101562 73.667969 -125.777344 C 59.039062 -133.21875 31.445312 -133.347656 14.117188 -121.285156 C -6.417969 -106.652344 2.4375 -78.03125 25.925781 -81.113281 Z M 25.925781 -81.113281" transform="translate(929.068 276.427)"/></g></g></g><g fill="#BBEFFF"><g><g><path d="M 107.421875 -57.496094 C 107.421875 -74.3125 106.140625 -86.632812 102.03125 -98.4375 C 97.15625 -111.273438 89.070312 -121.285156 76.109375 -126.546875 C 66.355469 -130.269531 56.214844 -131.039062 45.945312 -129.625 C 29.519531 -127.445312 17.710938 -118.972656 10.78125 -103.957031 C 6.289062 -94.203125 4.363281 -83.9375 3.722656 -73.414062 C 2.695312 -57.882812 3.207031 -42.351562 8.085938 -27.207031 C 12.578125 -12.707031 21.945312 -2.824219 37.089844 1.15625 C 45.820312 3.59375 54.929688 3.980469 63.914062 2.953125 C 83.679688 0.769531 96.386719 -10.011719 102.804688 -28.621094 C 106.398438 -39.273438 107.421875 -50.4375 107.421875 -57.496094 Z M 62.886719 -61.347656 C 62.246094 -55.828125 61.734375 -49.667969 60.964844 -43.765625 C 60.707031 -41.96875 59.9375 -40.300781 58.652344 -38.886719 C 55.574219 -35.039062 50.054688 -35.421875 48.257812 -40.042969 C 46.84375 -43.636719 45.945312 -47.742188 45.691406 -51.59375 C 45.046875 -61.476562 44.664062 -71.359375 46.972656 -81.242188 C 48.128906 -86.503906 50.695312 -88.683594 54.289062 -88.683594 C 58.011719 -88.558594 60.320312 -85.988281 61.089844 -80.472656 C 61.863281 -74.4375 62.246094 -67.894531 62.886719 -61.347656 Z M 62.886719 -61.347656" transform="translate(1029.69 276.427)"/></g></g><g><g><path d="M 25.925781 -81.113281 C 27.59375 -82.78125 28.75 -83.9375 29.777344 -85.089844 C 32.855469 -87.660156 36.578125 -89.328125 40.941406 -88.683594 C 44.921875 -88.300781 50.183594 -81.242188 44.148438 -73.925781 C 33.882812 -61.863281 18.226562 -48.515625 9.753906 -39.65625 C -4.105469 -25.027344 4.75 -7.445312 13.347656 1.027344 C 34.140625 1.667969 62.503906 1.027344 77.007812 -0.128906 C 97.027344 -1.667969 105.625 -29.003906 90.226562 -41.710938 C 82.78125 -41.199219 75.464844 -41.070312 68.148438 -40.683594 C 67.125 -40.683594 66.097656 -40.683594 65.457031 -40.683594 C 64.683594 -40.683594 63.660156 -41.453125 65.070312 -42.480469 C 66.226562 -43.378906 74.4375 -50.4375 77.90625 -54.160156 C 88.171875 -65.328125 95.101562 -77.777344 94.203125 -93.691406 C 93.304688 -108.195312 86.632812 -119.101562 73.667969 -125.777344 C 59.039062 -133.21875 31.445312 -133.347656 14.117188 -121.285156 C -6.417969 -106.652344 2.4375 -78.03125 25.925781 -81.113281 Z M 25.925781 -81.113281" transform="translate(1142.247 276.427)"/></g></g><g><g><path d="M 25.925781 -81.113281 C 27.59375 -82.78125 28.75 -83.9375 29.777344 -85.089844 C 32.855469 -87.660156 36.578125 -89.328125 40.941406 -88.683594 C 44.921875 -88.300781 50.183594 -81.242188 44.148438 -73.925781 C 33.882812 -61.863281 18.226562 -48.515625 9.753906 -39.65625 C -4.105469 -25.027344 4.75 -7.445312 13.347656 1.027344 C 34.140625 1.667969 62.503906 1.027344 77.007812 -0.128906 C 97.027344 -1.667969 105.625 -29.003906 90.226562 -41.710938 C 82.78125 -41.199219 75.464844 -41.070312 68.148438 -40.683594 C 67.125 -40.683594 66.097656 -40.683594 65.457031 -40.683594 C 64.683594 -40.683594 63.660156 -41.453125 65.070312 -42.480469 C 66.226562 -43.378906 74.4375 -50.4375 77.90625 -54.160156 C 88.171875 -65.328125 95.101562 -77.777344 94.203125 -93.691406 C 93.304688 -108.195312 86.632812 -119.101562 73.667969 -125.777344 C 59.039062 -133.21875 31.445312 -133.347656 14.117188 -121.285156 C -6.417969 -106.652344 2.4375 -78.03125 25.925781 -81.113281 Z M 25.925781 -81.113281" transform="translate(1242.868 276.427)"/></g></g></g></svg>