<svg xmlns="http://www.w3.org/2000/svg" width="1920" viewBox="0 0 1920 810" height="810" version="1.0"><g fill="#545454"><g><g><path d="M 223.660156 -172.492188 C 212.628906 -179.234375 183.523438 -193.019531 138.792969 -198.84375 C 123.164062 -200.988281 118.570312 -204.96875 118.570312 -211.710938 C 119.183594 -238.671875 194.246094 -228.5625 216.613281 -200.988281 C 251.847656 -209.257812 280.035156 -261.34375 226.417969 -296.886719 C 200.066406 -314.347656 144 -319.558594 103.558594 -308.527344 C 30.027344 -288.917969 19.609375 -228.5625 23.589844 -202.824219 C 33.089844 -145.226562 88.542969 -124.699219 138.179688 -121.019531 C 161.15625 -119.488281 169.125 -110.605469 165.753906 -98.347656 C 160.851562 -79.660156 120.410156 -80.273438 77.207031 -101.71875 C 27.269531 -126.535156 -7.046875 -63.726562 22.671875 -26.347656 C 77.820312 18.996094 172.800781 11.335938 213.242188 -4.902344 C 270.84375 -28.492188 301.480469 -124.390625 223.660156 -172.492188 Z M 223.660156 -172.492188" transform="translate(42.857 371.91)"/></g></g></g><g fill="#FD9999"><g><g><path d="M 223.660156 -172.492188 C 212.628906 -179.234375 183.523438 -193.019531 138.792969 -198.84375 C 123.164062 -200.988281 118.570312 -204.96875 118.570312 -211.710938 C 119.183594 -238.671875 194.246094 -228.5625 216.613281 -200.988281 C 251.847656 -209.257812 280.035156 -261.34375 226.417969 -296.886719 C 200.066406 -314.347656 144 -319.558594 103.558594 -308.527344 C 30.027344 -288.917969 19.609375 -228.5625 23.589844 -202.824219 C 33.089844 -145.226562 88.542969 -124.699219 138.179688 -121.019531 C 161.15625 -119.488281 169.125 -110.605469 165.753906 -98.347656 C 160.851562 -79.660156 120.410156 -80.273438 77.207031 -101.71875 C 27.269531 -126.535156 -7.046875 -63.726562 22.671875 -26.347656 C 77.820312 18.996094 172.800781 11.335938 213.242188 -4.902344 C 270.84375 -28.492188 301.480469 -124.390625 223.660156 -172.492188 Z M 223.660156 -172.492188" transform="translate(22.546 351.6)"/></g></g></g><g fill="#545454"><g><g><path d="M 128.375 -200.375 C 128.375 -203.4375 130.210938 -232.542969 127.457031 -259.507812 C 122.859375 -306.078125 53.921875 -322.925781 13.175781 -289.226562 C 9.496094 -233.464844 13.175781 -84.253906 15.625 -50.554688 C 20.835938 24.816406 112.441406 7.964844 129.292969 -7.351562 C 129.292969 -39.21875 129.292969 -71.386719 129.292969 -101.414062 C 149.515625 -101.414062 166.980469 -101.414062 186.585938 -101.414062 C 186.585938 -88.238281 187.199219 -53.003906 189.34375 -37.074219 C 196.390625 18.6875 287.691406 7.660156 301.480469 -7.660156 C 302.09375 -14.707031 302.398438 -29.414062 302.398438 -40.136719 C 302.707031 -117.957031 302.707031 -215.695312 302.707031 -246.332031 C 302.707031 -304.851562 227.949219 -323.847656 190.261719 -293.820312 C 187.507812 -277.277344 188.117188 -234.6875 187.199219 -200.375 C 167.589844 -200.375 148.59375 -200.375 128.375 -200.375 Z M 128.375 -200.375" transform="translate(293.32 371.91)"/></g></g></g><g fill="#B2FFC7"><g><g><path d="M 128.375 -200.375 C 128.375 -203.4375 130.210938 -232.542969 127.457031 -259.507812 C 122.859375 -306.078125 53.921875 -322.925781 13.175781 -289.226562 C 9.496094 -233.464844 13.175781 -84.253906 15.625 -50.554688 C 20.835938 24.816406 112.441406 7.964844 129.292969 -7.351562 C 129.292969 -39.21875 129.292969 -71.386719 129.292969 -101.414062 C 149.515625 -101.414062 166.980469 -101.414062 186.585938 -101.414062 C 186.585938 -88.238281 187.199219 -53.003906 189.34375 -37.074219 C 196.390625 18.6875 287.691406 7.660156 301.480469 -7.660156 C 302.09375 -14.707031 302.398438 -29.414062 302.398438 -40.136719 C 302.707031 -117.957031 302.707031 -215.695312 302.707031 -246.332031 C 302.707031 -304.851562 227.949219 -323.847656 190.261719 -293.820312 C 187.507812 -277.277344 188.117188 -234.6875 187.199219 -200.375 C 167.589844 -200.375 148.59375 -200.375 128.375 -200.375 Z M 128.375 -200.375" transform="translate(273.01 351.6)"/></g></g></g><g fill="#545454"><g><g><path d="M 4.597656 -92.527344 C -8.578125 -22.980469 27.878906 25.125 103.25 -2.449219 C 107.539062 -18.382812 112.441406 -33.703125 117.652344 -46.570312 C 137.257812 -45.957031 158.707031 -47.183594 178.007812 -46.265625 C 202.210938 37.683594 295.660156 -0.304688 299.949219 -33.703125 C 288.304688 -98.042969 256.441406 -205.890625 239.898438 -246.332031 C 204.96875 -331.507812 113.667969 -312.203125 71.695312 -298.417969 C 52.085938 -260.117188 16.542969 -154.109375 4.597656 -92.527344 Z M 129.601562 -134.195312 C 135.421875 -159.320312 141.242188 -183.21875 146.757812 -207.421875 C 147.675781 -207.421875 148.59375 -207.421875 149.515625 -207.726562 C 155.335938 -183.21875 161.464844 -159.011719 167.285156 -134.195312 C 154.722656 -134.195312 142.773438 -134.195312 129.601562 -134.195312 Z M 129.601562 -134.195312" transform="translate(571.96 371.91)"/></g></g></g><g fill="#E9A78B"><g><g><path d="M 4.597656 -92.527344 C -8.578125 -22.980469 27.878906 25.125 103.25 -2.449219 C 107.539062 -18.382812 112.441406 -33.703125 117.652344 -46.570312 C 137.257812 -45.957031 158.707031 -47.183594 178.007812 -46.265625 C 202.210938 37.683594 295.660156 -0.304688 299.949219 -33.703125 C 288.304688 -98.042969 256.441406 -205.890625 239.898438 -246.332031 C 204.96875 -331.507812 113.667969 -312.203125 71.695312 -298.417969 C 52.085938 -260.117188 16.542969 -154.109375 4.597656 -92.527344 Z M 129.601562 -134.195312 C 135.421875 -159.320312 141.242188 -183.21875 146.757812 -207.421875 C 147.675781 -207.421875 148.59375 -207.421875 149.515625 -207.726562 C 155.335938 -183.21875 161.464844 -159.011719 167.285156 -134.195312 C 154.722656 -134.195312 142.773438 -134.195312 129.601562 -134.195312 Z M 129.601562 -134.195312" transform="translate(551.65 351.6)"/></g></g></g><g fill="#545454"><g><g><path d="M 295.660156 -160.542969 C 295.660156 -226.417969 272.375 -268.390625 223.046875 -294.433594 C 182.605469 -315.878906 72.613281 -321.394531 21.753906 -291.371094 C 16.542969 -199.148438 16.238281 -122.246094 20.835938 -72.304688 C 26.042969 -13.480469 61.277344 6.433594 134.808594 6.433594 C 267.777344 6.433594 295.660156 -104.476562 295.660156 -160.542969 Z M 142.160156 -79.351562 C 137.566406 -79.351562 128.066406 -80.886719 127.761719 -90.382812 C 127.148438 -125.003906 127.761719 -209.257812 127.761719 -228.5625 C 152.273438 -233.15625 191.488281 -222.433594 191.183594 -162.382812 C 191.183594 -100.1875 165.753906 -79.964844 142.160156 -79.351562 Z M 142.160156 -79.351562" transform="translate(838.04 371.91)"/></g></g></g><g fill="#FFE780"><g><g><path d="M 295.660156 -160.542969 C 295.660156 -226.417969 272.375 -268.390625 223.046875 -294.433594 C 182.605469 -315.878906 72.613281 -321.394531 21.753906 -291.371094 C 16.542969 -199.148438 16.238281 -122.246094 20.835938 -72.304688 C 26.042969 -13.480469 61.277344 6.433594 134.808594 6.433594 C 267.777344 6.433594 295.660156 -104.476562 295.660156 -160.542969 Z M 142.160156 -79.351562 C 137.566406 -79.351562 128.066406 -80.886719 127.761719 -90.382812 C 127.148438 -125.003906 127.761719 -209.257812 127.761719 -228.5625 C 152.273438 -233.15625 191.488281 -222.433594 191.183594 -162.382812 C 191.183594 -100.1875 165.753906 -79.964844 142.160156 -79.351562 Z M 142.160156 -79.351562" transform="translate(817.729 351.6)"/></g></g></g><g fill="#545454"><g><g><path d="M 169.429688 -312.511719 C 85.175781 -312.203125 44.425781 -266.246094 25.125 -223.046875 C 10.722656 -191.488281 8.273438 -146.144531 17.464844 -106.621094 C 26.960938 -64.648438 49.328125 -31.863281 88.238281 -11.949219 C 128.988281 9.191406 172.1875 12.5625 216.304688 1.839844 C 270.84375 -11.03125 306.6875 -44.730469 323.234375 -98.042969 C 335.488281 -138.484375 332.117188 -178.316406 317.71875 -217.53125 C 308.527344 -241.734375 273.90625 -313.125 169.429688 -312.511719 Z M 170.960938 -202.824219 C 192.714844 -202.824219 212.324219 -182.910156 210.179688 -148.289062 C 208.339844 -113.667969 188.425781 -101.105469 172.1875 -100.1875 C 156.253906 -98.960938 132.664062 -111.523438 130.519531 -147.0625 C 128.066406 -183.523438 148.289062 -202.824219 170.960938 -202.824219 Z M 170.960938 -202.824219" transform="translate(1105.968 371.91)"/></g></g></g><g fill="#FFA4D4"><g><g><path d="M 169.429688 -312.511719 C 85.175781 -312.203125 44.425781 -266.246094 25.125 -223.046875 C 10.722656 -191.488281 8.273438 -146.144531 17.464844 -106.621094 C 26.960938 -64.648438 49.328125 -31.863281 88.238281 -11.949219 C 128.988281 9.191406 172.1875 12.5625 216.304688 1.839844 C 270.84375 -11.03125 306.6875 -44.730469 323.234375 -98.042969 C 335.488281 -138.484375 332.117188 -178.316406 317.71875 -217.53125 C 308.527344 -241.734375 273.90625 -313.125 169.429688 -312.511719 Z M 170.960938 -202.824219 C 192.714844 -202.824219 212.324219 -182.910156 210.179688 -148.289062 C 208.339844 -113.667969 188.425781 -101.105469 172.1875 -100.1875 C 156.253906 -98.960938 132.664062 -111.523438 130.519531 -147.0625 C 128.066406 -183.523438 148.289062 -202.824219 170.960938 -202.824219 Z M 170.960938 -202.824219" transform="translate(1085.657 351.6)"/></g></g></g><g fill="#545454"><g><g><path d="M 352.644531 -297.496094 C 349.277344 -254.910156 339.472656 -150.433594 331.199219 -103.25 C 330.28125 -103.25 329.363281 -103.25 328.441406 -102.945312 C 311.285156 -166.058594 297.191406 -226.109375 281.566406 -275.746094 C 267.164062 -322.316406 210.179688 -309.445312 186.28125 -301.175781 C 181.992188 -285.546875 163.300781 -218.757812 152.886719 -176.476562 C 147.0625 -151.964844 141.242188 -128.375 135.726562 -104.78125 C 134.503906 -104.78125 133.582031 -104.78125 132.664062 -104.78125 C 128.679688 -139.402344 130.519531 -193.632812 122.859375 -263.796875 C 115.507812 -332.425781 21.140625 -314.960938 9.804688 -276.664062 C 18.6875 -200.066406 25.429688 -90.996094 41.363281 -51.164062 C 75.0625 32.476562 166.671875 2.757812 208.339844 -10.417969 C 214.46875 -56.679688 220.289062 -105.394531 224.886719 -142.160156 C 226.109375 -142.160156 227.03125 -142.160156 228.5625 -142.160156 C 232.542969 -102.945312 233.769531 -84.5625 241.125 -56.988281 C 266.554688 38.605469 363.0625 5.820312 404.730469 -7.351562 C 421.582031 -55.148438 453.445312 -188.425781 459.878906 -240.511719 C 468.152344 -309.140625 402.894531 -322.007812 352.644531 -297.496094 Z M 352.644531 -297.496094" transform="translate(1410.966 371.91)"/></g></g></g><g fill="#D9D9D9"><g><g><path d="M 352.644531 -297.496094 C 349.277344 -254.910156 339.472656 -150.433594 331.199219 -103.25 C 330.28125 -103.25 329.363281 -103.25 328.441406 -102.945312 C 311.285156 -166.058594 297.191406 -226.109375 281.566406 -275.746094 C 267.164062 -322.316406 210.179688 -309.445312 186.28125 -301.175781 C 181.992188 -285.546875 163.300781 -218.757812 152.886719 -176.476562 C 147.0625 -151.964844 141.242188 -128.375 135.726562 -104.78125 C 134.503906 -104.78125 133.582031 -104.78125 132.664062 -104.78125 C 128.679688 -139.402344 130.519531 -193.632812 122.859375 -263.796875 C 115.507812 -332.425781 21.140625 -314.960938 9.804688 -276.664062 C 18.6875 -200.066406 25.429688 -90.996094 41.363281 -51.164062 C 75.0625 32.476562 166.671875 2.757812 208.339844 -10.417969 C 214.46875 -56.679688 220.289062 -105.394531 224.886719 -142.160156 C 226.109375 -142.160156 227.03125 -142.160156 228.5625 -142.160156 C 232.542969 -102.945312 233.769531 -84.5625 241.125 -56.988281 C 266.554688 38.605469 363.0625 5.820312 404.730469 -7.351562 C 421.582031 -55.148438 453.445312 -188.425781 459.878906 -240.511719 C 468.152344 -309.140625 402.894531 -322.007812 352.644531 -297.496094 Z M 352.644531 -297.496094" transform="translate(1390.655 351.6)"/></g></g></g><g fill="#545454"><g><g><path d="M 241.734375 -108.460938 C 303.011719 -154.417969 291.0625 -258.585938 242.347656 -291.0625 C 181.070312 -332.425781 51.777344 -313.734375 25.125 -287.691406 C 15.320312 -250.621094 16.542969 -79.046875 21.753906 -51.777344 C 35.234375 17.464844 105.089844 24.203125 130.519531 -3.675781 C 133.890625 -36.765625 133.582031 -84.253906 133.582031 -89.464844 C 133.582031 -89.769531 133.890625 -90.078125 133.890625 -90.078125 C 134.503906 -90.382812 134.808594 -90.382812 135.113281 -90.6875 C 135.421875 -90.6875 135.421875 -90.6875 135.726562 -90.6875 C 140.324219 -87.625 195.164062 -73.839844 241.734375 -108.460938 Z M 180.765625 -195.472656 C 180.765625 -183.21875 176.476562 -176.78125 167.285156 -175.25 C 159.625 -173.71875 151.964844 -174.023438 144.304688 -174.023438 C 143.082031 -174.023438 140.9375 -176.476562 140.9375 -177.703125 C 140.628906 -188.425781 140.628906 -197.003906 140.628906 -209.871094 C 160.851562 -222.128906 180.765625 -208.035156 180.765625 -195.472656 Z M 180.765625 -195.472656" transform="translate(434.248 752.736)"/></g></g></g><g fill="#80B1FF"><g><g><path d="M 241.734375 -108.460938 C 303.011719 -154.417969 291.0625 -258.585938 242.347656 -291.0625 C 181.070312 -332.425781 51.777344 -313.734375 25.125 -287.691406 C 15.320312 -250.621094 16.542969 -79.046875 21.753906 -51.777344 C 35.234375 17.464844 105.089844 24.203125 130.519531 -3.675781 C 133.890625 -36.765625 133.582031 -84.253906 133.582031 -89.464844 C 133.582031 -89.769531 133.890625 -90.078125 133.890625 -90.078125 C 134.503906 -90.382812 134.808594 -90.382812 135.113281 -90.6875 C 135.421875 -90.6875 135.421875 -90.6875 135.726562 -90.6875 C 140.324219 -87.625 195.164062 -73.839844 241.734375 -108.460938 Z M 180.765625 -195.472656 C 180.765625 -183.21875 176.476562 -176.78125 167.285156 -175.25 C 159.625 -173.71875 151.964844 -174.023438 144.304688 -174.023438 C 143.082031 -174.023438 140.9375 -176.476562 140.9375 -177.703125 C 140.628906 -188.425781 140.628906 -197.003906 140.628906 -209.871094 C 160.851562 -222.128906 180.765625 -208.035156 180.765625 -195.472656 Z M 180.765625 -195.472656" transform="translate(413.938 732.425)"/></g></g></g><g fill="#545454"><g><g><path d="M 4.597656 -92.527344 C -8.578125 -22.980469 27.878906 25.125 103.25 -2.449219 C 107.539062 -18.382812 112.441406 -33.703125 117.652344 -46.570312 C 137.257812 -45.957031 158.707031 -47.183594 178.007812 -46.265625 C 202.210938 37.683594 295.660156 -0.304688 299.949219 -33.703125 C 288.304688 -98.042969 256.441406 -205.890625 239.898438 -246.332031 C 204.96875 -331.507812 113.667969 -312.203125 71.695312 -298.417969 C 52.085938 -260.117188 16.542969 -154.109375 4.597656 -92.527344 Z M 129.601562 -134.195312 C 135.421875 -159.320312 141.242188 -183.21875 146.757812 -207.421875 C 147.675781 -207.421875 148.59375 -207.421875 149.515625 -207.726562 C 155.335938 -183.21875 161.464844 -159.011719 167.285156 -134.195312 C 154.722656 -134.195312 142.773438 -134.195312 129.601562 -134.195312 Z M 129.601562 -134.195312" transform="translate(693.284 752.736)"/></g></g></g><g fill="#D2B6B7"><g><g><path d="M 4.597656 -92.527344 C -8.578125 -22.980469 27.878906 25.125 103.25 -2.449219 C 107.539062 -18.382812 112.441406 -33.703125 117.652344 -46.570312 C 137.257812 -45.957031 158.707031 -47.183594 178.007812 -46.265625 C 202.210938 37.683594 295.660156 -0.304688 299.949219 -33.703125 C 288.304688 -98.042969 256.441406 -205.890625 239.898438 -246.332031 C 204.96875 -331.507812 113.667969 -312.203125 71.695312 -298.417969 C 52.085938 -260.117188 16.542969 -154.109375 4.597656 -92.527344 Z M 129.601562 -134.195312 C 135.421875 -159.320312 141.242188 -183.21875 146.757812 -207.421875 C 147.675781 -207.421875 148.59375 -207.421875 149.515625 -207.726562 C 155.335938 -183.21875 161.464844 -159.011719 167.285156 -134.195312 C 154.722656 -134.195312 142.773438 -134.195312 129.601562 -134.195312 Z M 129.601562 -134.195312" transform="translate(672.973 732.425)"/></g></g></g><g fill="#545454"><g><g><path d="M 204.355469 -0.917969 C 247.25 -3.675781 282.484375 -56.066406 257.667969 -102.332031 C 214.46875 -107.539062 158.707031 -108.152344 130.824219 -106.007812 C 132.050781 -144.304688 132.050781 -206.808594 128.375 -242.960938 C 120.101562 -318.023438 48.101562 -317.414062 19.914062 -291.984375 C 7.964844 -216.304688 12.253906 -110.605469 18.6875 -67.402344 C 27.574219 -7.351562 77.820312 -0.917969 109.378906 -0.917969 C 109.378906 -0.917969 161.15625 1.839844 204.355469 -0.917969 Z M 204.355469 -0.917969" transform="translate(959.363 752.736)"/></g></g></g><g fill="#FFC897"><g><g><path d="M 204.355469 -0.917969 C 247.25 -3.675781 282.484375 -56.066406 257.667969 -102.332031 C 214.46875 -107.539062 158.707031 -108.152344 130.824219 -106.007812 C 132.050781 -144.304688 132.050781 -206.808594 128.375 -242.960938 C 120.101562 -318.023438 48.101562 -317.414062 19.914062 -291.984375 C 7.964844 -216.304688 12.253906 -110.605469 18.6875 -67.402344 C 27.574219 -7.351562 77.820312 -0.917969 109.378906 -0.917969 C 109.378906 -0.917969 161.15625 1.839844 204.355469 -0.917969 Z M 204.355469 -0.917969" transform="translate(939.052 732.425)"/></g></g></g><g fill="#545454"><g><g><path d="M 223.660156 -172.492188 C 212.628906 -179.234375 183.523438 -193.019531 138.792969 -198.84375 C 123.164062 -200.988281 118.570312 -204.96875 118.570312 -211.710938 C 119.183594 -238.671875 194.246094 -228.5625 216.613281 -200.988281 C 251.847656 -209.257812 280.035156 -261.34375 226.417969 -296.886719 C 200.066406 -314.347656 144 -319.558594 103.558594 -308.527344 C 30.027344 -288.917969 19.609375 -228.5625 23.589844 -202.824219 C 33.089844 -145.226562 88.542969 -124.699219 138.179688 -121.019531 C 161.15625 -119.488281 169.125 -110.605469 165.753906 -98.347656 C 160.851562 -79.660156 120.410156 -80.273438 77.207031 -101.71875 C 27.269531 -126.535156 -7.046875 -63.726562 22.671875 -26.347656 C 77.820312 18.996094 172.800781 11.335938 213.242188 -4.902344 C 270.84375 -28.492188 301.480469 -124.390625 223.660156 -172.492188 Z M 223.660156 -172.492188" transform="translate(1198.489 752.736)"/></g></g></g><g fill="#80CFB0"><g><g><path d="M 223.660156 -172.492188 C 212.628906 -179.234375 183.523438 -193.019531 138.792969 -198.84375 C 123.164062 -200.988281 118.570312 -204.96875 118.570312 -211.710938 C 119.183594 -238.671875 194.246094 -228.5625 216.613281 -200.988281 C 251.847656 -209.257812 280.035156 -261.34375 226.417969 -296.886719 C 200.066406 -314.347656 144 -319.558594 103.558594 -308.527344 C 30.027344 -288.917969 19.609375 -228.5625 23.589844 -202.824219 C 33.089844 -145.226562 88.542969 -124.699219 138.179688 -121.019531 C 161.15625 -119.488281 169.125 -110.605469 165.753906 -98.347656 C 160.851562 -79.660156 120.410156 -80.273438 77.207031 -101.71875 C 27.269531 -126.535156 -7.046875 -63.726562 22.671875 -26.347656 C 77.820312 18.996094 172.800781 11.335938 213.242188 -4.902344 C 270.84375 -28.492188 301.480469 -124.390625 223.660156 -172.492188 Z M 223.660156 -172.492188" transform="translate(1178.178 732.425)"/></g></g></g></svg>